<?xml version="1.0" standalone="no"?>
<!DOCTYPE svg PUBLIC "-//W3C//DTD SVG 20010904//EN"
 "http://www.w3.org/TR/2001/REC-SVG-20010904/DTD/svg10.dtd">
<svg version="1.0" xmlns="http://www.w3.org/2000/svg"
 width="96.000000pt" height="96.000000pt" viewBox="0 0 96.000000 96.000000"
 preserveAspectRatio="xMidYMid meet">
<metadata>
Created by potrace 1.14, written by Peter Selinger 2001-2017
</metadata>
<g transform="translate(0.000000,96.000000) scale(0.100000,-0.100000)"
fill="#000000" stroke="none">
<path d="M750 876 c-6 -8 -23 -16 -38 -18 -21 -2 -26 -9 -28 -31 0 -15 -10
-34 -20 -41 -19 -14 -19 -15 2 -38 12 -13 20 -33 19 -45 -1 -19 3 -23 25 -23
15 0 35 -9 45 -20 17 -19 18 -19 43 0 13 11 35 20 48 20 19 0 24 5 24 27 0 14
7 35 17 45 15 17 15 19 0 36 -10 10 -17 31 -17 45 0 23 -4 27 -29 27 -16 0
-34 7 -41 15 -16 19 -34 19 -50 1z"/>
<path d="M300 853 c-41 -110 -85 -220 -92 -227 -5 -6 -13 -2 -22 9 -7 10 -20
16 -27 13 -8 -3 -47 -85 -87 -182 l-72 -177 0 -115 0 -114 480 0 480 0 0 80 0
80 -45 0 c-45 0 -45 0 -45 35 0 35 0 35 46 35 40 0 45 2 39 18 -3 9 -24 67
-46 127 -70 193 -57 191 -121 14 l-56 -154 44 -3 c24 -2 44 -6 45 -10 0 -4 2
-20 3 -36 l2 -28 -59 5 c-40 3 -65 11 -76 23 -10 11 -46 91 -81 179 -35 88
-69 166 -76 174 -11 12 -16 7 -33 -32 -11 -26 -22 -47 -25 -47 -2 0 -10 17
-17 38 -6 20 -20 55 -29 77 -10 22 -36 85 -58 140 -22 55 -45 101 -51 103 -6
2 -16 -9 -21 -25z"/>
</g>
</svg>
